<?xml version="1.0" encoding="utf-8"?>
<!-- Generator: Adobe Illustrator 18.1.1, SVG Export Plug-In . SVG Version: 6.00 Build 0)  -->
<svg version="1.1" id="Layer_1" xmlns="http://www.w3.org/2000/svg" xmlns:xlink="http://www.w3.org/1999/xlink" x="0px" y="0px"
	 viewBox="0 0 44 82" enable-background="new 0 0 44 82" xml:space="preserve">
<g>
	<g>
		<path fill="#FFFFFF" d="M21.6,48c0,0.2,0,0.4,0,0.6c0.1,1.7-0.2,3.3-1.7,4.5c-0.1,0.1-0.2,0.3-0.2,0.5c0,1.9,0,3.8,0.1,5.7
			c0,1.5,1.1,2.6,2.6,2.6c1.2,0,2.4-1.2,2.4-2.6c0-2.8,0-5.6,0-8.3C24.7,49.4,23.4,47.6,21.6,48 M27.6,54.8c0,1.4,0,2.9,0,4.3
			c0,1.4,1.2,2.6,2.6,2.6c1.2,0,2.4-1.2,2.4-2.6c0-2.8,0-5.7,0-8.5c0-1.4-1.3-2.7-2.6-2.7c-1.3,0-2.4,1.3-2.4,2.8
			C27.6,52.1,27.6,53.4,27.6,54.8 M35.4,54.9c0,1.4,0,2.9,0,4.3c0,1.2,1,2.3,2.2,2.5c1,0.2,2.6-0.7,2.7-1.7c0.1-3.5,0.2-6.9,0-10.4
			c-0.1-1.2-1.9-1.9-3.1-1.5c-1,0.4-1.7,1.3-1.7,2.6C35.4,52.1,35.4,53.5,35.4,54.9 M11.7,53.9v1c0,6.7,0,13.4,0,20.1
			c0,1.8,1.2,2.8,2.6,2.9c1.3,0.1,2.4-1.3,2.4-2.9c0-6.6,0-13.1,0-19.7v-1.1C15,54.2,13.4,54.1,11.7,53.9 M40.4,45.7
			c0-3.6,0.1-7.1,0-10.6c-0.1-3.9-1.8-7.1-4.6-9.7c-3.2-3-7.1-4.5-11.4-4.8c-4.4-0.3-8.7,0.2-12.7,2.4c-5,2.9-7.8,7.2-8,13
			c-0.1,4.2,0,8.4,0,12.6c0,1,0.3,1.3,1.2,1.5c1.8,0.3,3.5,0.6,5.3,0.8c2.2,0.3,4.4,0.5,6.6,0.6c1.1,0.1,1.8-0.6,2-1.7
			c0.3-1.5-0.6-2.8-2.3-3.3c-2.4-0.6-4.9-1.3-7.3-1.9c-0.4-0.1-0.9-0.3-1-0.6c-0.2-0.5-0.3-1.2,0-1.7c0.4-0.7,1.2-0.6,1.9-0.4
			c2.2,0.6,4.5,1.1,6.7,1.8c1.1,0.4,2.1,1,3.1,1.6c0.2,0.1,0.5,0.2,0.7,0.2c2.1-0.5,3.9-0.1,5.5,1.4c2-2.1,5.9-2.3,7.9,0
			C35.9,45,38.1,44.8,40.4,45.7 M43.3,60.3c-0.5,1.3-1.1,2.5-2.2,3.3c-1.9,1.3-4.1,1.5-6.2,0c-0.3-0.2-0.6-0.4-0.9-0.6
			c-1,1-2.4,1.6-3.8,1.7c-1.5,0-2.8-0.6-3.8-1.5c-1.2,0.5-2.2,1.1-3.3,1.3c-1.1,0.2-2.3-0.1-3.5-0.2c0,3.4,0,7,0,10.6
			c0,0.8-0.2,1.5-0.4,2.3c-0.6,2.1-2.5,3.9-5.7,3.6c-1.9-0.2-3.8-1.7-4.4-4c-0.1-0.7-0.2-1.3-0.2-2c0-6.7,0-13.3,0-20v-1
			c-1.9-0.4-3.7-0.8-5.4-1.2c-1.8-0.5-2.6-1.7-2.6-3.6c0-4.1-0.1-8.3,0-12.4C0.9,31,2.7,26.3,7,22.7c2.7-2.3,5.8-3.8,9.3-4.4
			c2.3-0.4,4.6-0.7,6.9-0.6c5.1,0.2,9.8,1.5,13.8,4.9c3.6,3,5.6,6.7,6.1,11.4c0,0.1,0.1,0.1,0.2,0.2V60.3z"/>
	</g>
	<path fill="#FFFFFF" d="M40,3.6C40,2.2,38.8,1,37.4,1H6.6C5.2,1,4,2.2,4,3.6v7.8C4,12.8,5.2,14,6.6,14h30.8c1.4,0,2.6-1.2,2.6-2.6
		V3.6z M10.5,10C9,10,7.8,8.7,7.8,7.2S9,4.5,10.5,4.5s2.8,1.2,2.8,2.8S12,10,10.5,10z"/>
</g>
</svg>
